# xmcd CD database file
#
# Track frame offsets:
#	150
#	18121
#	38826
#	58168
#	73395
#	88947
#	104819
#	115340
#	130513
#	144763
#	165322
#	182102
#	201643
#	218904
#	235843
#	252908
#	268116
#	284007
#	304766
#	318127
#	336480
#
# Disc length: 4674 seconds
#
# Revision: 0
# Processed by: cddbd v1.5.2PL0 Copyright (c) Steve Scherf et al.
# Submitted via: ACXtractor (MTCDDB.DLL V2003.12.21)
#
DISCID=46124015
DTITLE=Mixed - LBSCountry collection Vol19
DYEAR=2014
DGENRE=Country
TTITLE0=Hail Australia/ Shaza Leigh
TTITLE1=Tattered Flag/ Brian Letton
TTITLE2=Someday Soon/Lynette Guest
TTITLE3=Cattle Camp Reverie/ Tom Maxwell
TTITLE4=The One and Only Ned Kelly/ Dale Duncan
TTITLE5=My Campfire's My Home/ Ashely Cook
TTITLE6=Tamworth Espress/ Peggy Gilchrist
TTITLE7=Old Love Letters/ Rachel Jillett
TTITLE8=Coming Back Home/ Greg Bain
TTITLE9=Susannahs Song/ Michell Ovenden
TTITLE10=The Dreamers/ Dianne Lindsay and Dale Duncan
TTITLE11=An Angels Promise/ Emma Jene
TTITLE12=It Reminds Me/ Bob Ovenden
TTITLE13=Camooweal/ Lindsay Butler
TTITLE14=Fly/ Shaza Leigh and Emma Jene
TTITLE15=Ships of the Desert/ Ashley Cook and Brian Young
TTITLE16=I Turn Back the Years/ Bill Mackey
TTITLE17=I'll Miss You/ Rachel Summerell
TTITLE18=I'd Rather Mud Than Dust/ Dale Duncan and Grahan Rodger
TTITLE19=It's so Easy/ Mystic Eclipse
TTITLE20=Daddy Frank/ Lindsay Butler
EXTD=ID3G:   2 YEAR: 2014
EXTT0=
EXTT1=
EXTT2=
EXTT3=
EXTT4=
EXTT5=
EXTT6=
EXTT7=
EXTT8=
EXTT9=
EXTT10=
EXTT11=
EXTT12=
EXTT13=
EXTT14=
EXTT15=
EXTT16=
EXTT17=
EXTT18=
EXTT19=
EXTT20=
PLAYORDER=
